<?xml version="1.0" encoding="UTF-8"?>

<!DOCTYPE svg PUBLIC '-//W3C//DTD SVG 1.0//EN' 'http://www.w3.org/TR/2001/REC-SVG-20010904/DTD/svg10.dtd'>
<svg xmlns:xlink="http://www.w3.org/1999/xlink" style="fill-opacity:1; color-rendering:auto; color-interpolation:auto; text-rendering:auto; stroke:black; stroke-linecap:square; stroke-miterlimit:10; shape-rendering:auto; stroke-opacity:1; fill:black; stroke-dasharray:none; font-weight:normal; stroke-width:1; font-family:&apos;Dialog&apos;; font-style:normal; stroke-linejoin:miter; font-size:12; stroke-dashoffset:0; image-rendering:auto;" xmlns="http://www.w3.org/2000/svg">
  <!--Generated by the Batik Graphics2D SVG Generator-->
  <defs id="genericDefs" />
  <g>
    <g transform="translate(130,10)" style="font-size:14; fill:blue; text-rendering:geometricPrecision; image-rendering:optimizeSpeed; color-rendering:optimizeQuality; font-family:sans-serif; stroke:blue; color-interpolation:linearRGB;">
      <polygon style="opacity:0.5; stroke:none;" points=" 0 0 336 0 336 0 349 14 349 14 349 39 349 39 0 39 0 39 0 0" />
      <text x="7" y="17" style="fill:black; stroke:none;" xml:space="preserve">02/12/2007 - Littleware Deployment Model</text>
      <line x1="0" x2="336" y1="0" style="fill:none; stroke:black;" y2="0" />
      <line x1="336" x2="349" y1="0" style="fill:none; stroke:black;" y2="14" />
      <line x1="349" x2="349" y1="14" style="fill:none; stroke:black;" y2="39" />
      <line x1="349" x2="0" y1="39" style="fill:none; stroke:black;" y2="39" />
      <line x1="0" x2="0" y1="39" style="fill:none; stroke:black;" y2="0" />
      <line x1="336" x2="336" y1="0" style="fill:none; stroke:black;" y2="14" />
      <line x1="336" x2="349" y1="14" style="fill:none; stroke:black;" y2="14" />
      <text x="43" y="98" transform="translate(70,70)" style="fill:black; stroke:none;" xml:space="preserve">Client</text>
      <circle transform="translate(70,70)" style="fill:white; opacity:0; stroke:none;" r="7" cx="62" cy="7" />
      <circle transform="translate(70,70)" style="fill:none; stroke:black;" r="7" cx="62" cy="7" />
      <line transform="translate(70,70)" x1="62" x2="62" y1="14" style="fill:none; stroke:black;" y2="35" />
      <line transform="translate(70,70)" x1="34" x2="90" y1="18" style="fill:none; stroke:black;" y2="18" />
      <line transform="translate(70,70)" x1="62" x2="48" y1="35" style="fill:none; stroke:black;" y2="70" />
      <line transform="translate(70,70)" x1="62" x2="76" y1="35" style="fill:none; stroke:black;" y2="70" />
      <line transform="translate(150,90)" x1="50" x2="110" y1="200" style="fill:none; stroke:black;" y2="140" />
      <line transform="translate(150,90)" x1="110" x2="65" y1="140" style="fill:none; stroke:black;" y2="80" />
      <line transform="translate(150,90)" x1="65" x2="20" y1="80" style="fill:none; stroke:black;" y2="20" />
      <line transform="translate(150,90)" x1="50" x2="54" y1="199" style="fill:none; stroke:black;" y2="186" />
      <line transform="translate(150,90)" x1="50" x2="63" y1="199" style="fill:none; stroke:black;" y2="195" />
      <text x="57" y="193" transform="translate(150,90)" style="fill:black; stroke:none;" xml:space="preserve">0..n</text>
      <text x="18" y="165" transform="translate(150,90)" style="fill:black; stroke:none;" xml:space="preserve">standalone app/script</text>
      <line transform="translate(-49,90)" x1="89" x2="49" y1="200" style="fill:none; stroke:black;" y2="130" />
      <line transform="translate(-49,90)" x1="49" x2="99" y1="130" style="fill:none; stroke:black;" y2="75" />
      <line transform="translate(-49,90)" x1="99" x2="149" y1="75" style="fill:none; stroke:black;" y2="20" />
      <line transform="translate(-49,90)" x1="88" x2="77" y1="199" style="fill:none; stroke:black;" y2="192" />
      <line transform="translate(-49,90)" x1="88" x2="88" y1="199" style="fill:none; stroke:black;" y2="186" />
      <text x="65" y="193" transform="translate(-49,90)" style="fill:black; stroke:none;" xml:space="preserve">0..n</text>
      <text x="2" y="165" transform="translate(-49,90)" style="fill:black; stroke:none;" xml:space="preserve">browser/javascript</text>
      <rect x="0" y="0" transform="translate(40,270)" width="159" style="fill:white; opacity:0; stroke:none;" height="49" />
      <rect x="0" y="0" transform="translate(40,270)" width="159" style="fill:none; stroke:black;" height="49" />
      <text x="19" y="17" transform="translate(40,270)" style="fill:black; stroke:none;" xml:space="preserve">Application switch</text>
      <line transform="translate(330,590)" x1="70" x2="45" y1="80" style="fill:none; stroke:black;" y2="50" />
      <line transform="translate(330,590)" x1="45" x2="20" y1="50" style="fill:none; stroke:black;" y2="20" />
      <line transform="translate(330,590)" x1="69" x2="57" y1="79" style="fill:none; stroke:black;" y2="74" />
      <line transform="translate(330,590)" x1="69" x2="66" y1="79" style="fill:none; stroke:black;" y2="66" />
      <text x="40" y="73" transform="translate(330,590)" style="fill:black; stroke:none;" xml:space="preserve">0..n</text>
      <line transform="translate(130,590)" x1="20" x2="105" y1="80" style="fill:none; stroke:black;" y2="50" />
      <line transform="translate(130,590)" x1="105" x2="190" y1="50" style="fill:none; stroke:black;" y2="20" />
      <line transform="translate(130,590)" x1="20" x2="29" y1="79" style="fill:none; stroke:black;" y2="69" />
      <line transform="translate(130,590)" x1="20" x2="33" y1="79" style="fill:none; stroke:black;" y2="80" />
      <text x="33" y="84" transform="translate(130,590)" style="fill:black; stroke:none;" xml:space="preserve">0..n</text>
      <line transform="translate(140,480)" x1="150" x2="85" y1="100" style="fill:none; stroke:black;" y2="60" />
      <line transform="translate(140,480)" x1="85" x2="20" y1="60" style="fill:none; stroke:black;" y2="20" />
      <line transform="translate(140,480)" x1="149" x2="136" y1="99" style="fill:none; stroke:black;" y2="98" />
      <line transform="translate(140,480)" x1="149" x2="142" y1="99" style="fill:none; stroke:black;" y2="88" />
      <text x="111" y="97" transform="translate(140,480)" style="fill:black; stroke:none;" xml:space="preserve">0..n</text>
      <text x="77" y="70" transform="translate(140,480)" style="fill:black; stroke:none;" xml:space="preserve">RMI</text>
      <line transform="translate(100,300)" x1="70" x2="45" y1="110" style="fill:none; stroke:black;" y2="65" />
      <line transform="translate(100,300)" x1="45" x2="20" y1="65" style="fill:none; stroke:black;" y2="20" />
      <line transform="translate(100,300)" x1="69" x2="58" y1="109" style="fill:none; stroke:black;" y2="102" />
      <line transform="translate(100,300)" x1="69" x2="69" y1="109" style="fill:none; stroke:black;" y2="96" />
      <text x="46" y="103" transform="translate(100,300)" style="fill:black; stroke:none;" xml:space="preserve">0..n</text>
      <text x="28" y="75" transform="translate(100,300)" style="fill:black; stroke:none;" xml:space="preserve">HTTP</text>
      <line transform="translate(-40,300)" x1="20" x2="70" y1="110" style="fill:none; stroke:black;" y2="65" />
      <line transform="translate(-40,300)" x1="70" x2="120" y1="65" style="fill:none; stroke:black;" y2="20" />
      <line transform="translate(-40,300)" x1="20" x2="25" y1="109" style="fill:none; stroke:black;" y2="96" />
      <line transform="translate(-40,300)" x1="20" x2="33" y1="109" style="fill:none; stroke:black;" y2="106" />
      <text x="27" y="103" transform="translate(-40,300)" style="fill:black; stroke:none;" xml:space="preserve">0..n</text>
      <text x="49" y="75" transform="translate(-40,300)" style="fill:black; stroke:none;" xml:space="preserve">HTTP</text>
      <rect x="0" y="0" transform="translate(110,410)" width="169" style="fill:white; opacity:0; stroke:none;" height="89" />
      <rect x="0" y="0" transform="translate(110,410)" width="169" style="fill:none; stroke:black;" height="89" />
      <text x="7" y="17" transform="translate(110,410)" style="fill:black; stroke:none;" xml:space="preserve">Web Application Server</text>
      <text x="56" y="34" transform="translate(110,410)" style="fill:black; stroke:none;" xml:space="preserve">(Tomcat)</text>
      <text x="19" y="51" transform="translate(110,410)" style="fill:black; stroke:none;" xml:space="preserve">JSP, javascript, XML</text>
      <rect x="0" y="0" transform="translate(100,670)" width="179" style="fill:white; opacity:0; stroke:none;" height="79" />
      <rect x="0" y="0" transform="translate(100,670)" width="179" style="fill:none; stroke:black;" height="79" />
      <text x="7" y="17" transform="translate(100,670)" style="fill:black; stroke:none;" xml:space="preserve">Filesystem Asset Storage</text>
      <text x="39" y="34" transform="translate(100,670)" style="fill:black; stroke:none;" xml:space="preserve">(NFS, whatever)</text>
      <rect x="0" y="0" transform="translate(-80,410)" width="169" style="fill:white; opacity:0; stroke:none;" height="89" />
      <rect x="0" y="0" transform="translate(-80,410)" width="169" style="fill:none; stroke:black;" height="89" />
      <text x="15" y="17" transform="translate(-80,410)" style="fill:black; stroke:none;" xml:space="preserve">Static Content Server</text>
      <text x="56" y="34" transform="translate(-80,410)" style="fill:black; stroke:none;" xml:space="preserve">(Apache)</text>
      <text x="25" y="51" transform="translate(-80,410)" style="fill:black; stroke:none;" xml:space="preserve">static images, etc.</text>
      <rect x="0" y="0" transform="translate(330,670)" width="139" style="fill:white; opacity:0; stroke:none;" height="79" />
      <rect x="0" y="0" transform="translate(330,670)" width="139" style="fill:none; stroke:black;" height="79" />
      <text x="15" y="17" transform="translate(330,670)" style="fill:black; stroke:none;" xml:space="preserve">RDMS (postgres)</text>
      <rect x="0" y="0" transform="translate(290,530)" width="159" style="fill:white; opacity:0; stroke:none;" height="79" />
      <rect x="0" y="0" transform="translate(290,530)" width="159" style="fill:none; stroke:black;" height="79" />
      <text x="12" y="17" transform="translate(290,530)" style="fill:black; stroke:none;" xml:space="preserve">Littleware API Server</text>
      <text x="51" y="34" transform="translate(290,530)" style="fill:black; stroke:none;" xml:space="preserve">(Tomcat)</text>
      <text x="7" y="51" transform="translate(290,530)" style="fill:black; stroke:none;" xml:space="preserve">RMI, REST/XML, SOAP</text>
      <line transform="translate(170,300)" x1="220" x2="150" y1="230" style="fill:none; stroke:black;" y2="100" />
      <line transform="translate(170,300)" x1="150" x2="85" y1="100" style="fill:none; stroke:black;" y2="60" />
      <line transform="translate(170,300)" x1="85" x2="20" y1="60" style="fill:none; stroke:black;" y2="20" />
      <line transform="translate(170,300)" x1="219" x2="208" y1="229" style="fill:none; stroke:black;" y2="221" />
      <line transform="translate(170,300)" x1="219" x2="219" y1="229" style="fill:none; stroke:black;" y2="216" />
      <text x="196" y="223" transform="translate(170,300)" style="fill:black; stroke:none;" xml:space="preserve">0..n</text>
      <text x="164" y="195" transform="translate(170,300)" style="fill:black; stroke:none;" xml:space="preserve">HTTP,RMI</text>
    </g>
  </g>
</svg>
